Coordinates
version=1
nRows=16
nColumns=63
inDegrees=yes

Units are S.I. units (second, meters, Newtons, ...)
If the header above contains a line with 'inDegrees', this indicates whether rotational values are in degrees (yes) or radians (no).

endheader
time	pelvis_tilt	pelvis_list	pelvis_rotation	pelvis_tx	pelvis_ty	pelvis_tz	hip_flexion_r	hip_adduction_r	hip_rotation_r	knee_angle_r	knee_angle_r_beta	ankle_angle_r	subtalar_angle_r	mtp_angle_r	hip_flexion_l	hip_adduction_l	hip_rotation_l	knee_angle_l	knee_angle_l_beta	ankle_angle_l	subtalar_angle_l	mtp_angle_l	L5_S1_Flex_Ext	L5_S1_Lat_Bending	L5_S1_axial_rotation	L4_L5_Flex_Ext	L4_L5_Lat_Bending	L4_L5_axial_rotation	L3_L4_Flex_Ext	L3_L4_Lat_Bending	L3_L4_axial_rotation	L2_L3_Flex_Ext	L2_L3_Lat_Bending	L2_L3_axial_rotation	L1_L2_Flex_Ext	L1_L2_Lat_Bending	L1_L2_axial_rotation	L1_T12_Flex_Ext	L1_T12_Lat_Bending	L1_T12_axial_rotation	Abs_r3	Abs_r2	Abs_r1	Abs_t1	Abs_t2	neck_flexion	neck_bending	neck_rotation	arm_flex_r	arm_add_r	arm_rot_r	elbow_flex_r	pro_sup_r	wrist_flex_r	wrist_dev_r	arm_flex_l	arm_add_l	arm_rot_l	elbow_flex_l	pro_sup_l	wrist_flex_l	wrist_dev_l
4.384615	0.602617	-8.798211	87.604033	0.194350	0.741004	0.822984	19.292617	0.287402	7.918863	12.831682	0.223955	30.457278	-5.664545	0.000000	16.334259	0.974580	0.961182	8.859029	0.154619	30.807914	-5.388389	0.000000	0.029727	0.336853	-0.398084	0.055206	0.448014	-0.422965	0.048839	0.819024	-0.422965	0.033975	0.819024	-0.348324	0.027605	0.686910	-0.323443	0.016986	0.521785	-0.298563	0.212338	3.810548	-2.214025	0.000000	0.000000	26.774473	-1.457867	-19.152006	13.599522	-22.059649	59.249845	30.933833	62.811758	-6.796870	-11.890963	15.018104	-17.662988	146.695232	0.752275	2.362179	-11.394491	-19.750853
4.403846	0.653922	-9.176421	87.272097	0.195605	0.740432	0.825381	19.629032	0.465074	8.202996	12.305280	0.214768	30.008291	-5.677180	0.000000	16.766681	0.772021	0.836701	8.791388	0.153439	30.489339	-5.405595	0.000000	0.038107	0.321986	-0.319020	0.070768	0.428241	-0.338959	0.062606	0.782877	-0.338959	0.043552	0.782877	-0.279143	0.035386	0.656594	-0.259204	0.021774	0.498756	-0.239265	0.272193	3.642370	-1.774296	0.000000	0.000000	26.651100	-1.643401	-19.055871	14.499209	-22.668917	53.085129	34.026234	68.402115	-7.975230	-10.334031	16.487452	-17.451146	149.619241	0.490123	2.329399	-12.316975	-20.595789
4.423077	0.748410	-9.490899	86.985449	0.196615	0.739927	0.827485	19.850799	0.667946	8.550393	11.712052	0.204414	29.550743	-5.803892	0.000000	17.125476	0.544906	0.702269	8.762512	0.152935	30.299325	-5.370065	0.000000	0.047342	0.316052	-0.248213	0.087919	0.420349	-0.263726	0.077778	0.768448	-0.263726	0.054107	0.768448	-0.217186	0.043962	0.644492	-0.201673	0.027051	0.489564	-0.186159	0.338160	3.575239	-1.380484	0.000000	0.000000	26.518207	-1.716378	-18.548917	15.307995	-23.141161	47.813429	36.723416	72.852369	-9.002904	-8.572056	17.798108	-17.090375	151.887603	0.260008	2.299091	-12.884196	-21.360971
4.442308	0.868576	-9.736965	86.721321	0.197420	0.739507	0.829235	19.961825	0.887034	9.006410	11.080159	0.193385	29.093428	-6.065759	0.000000	17.403433	0.307403	0.524218	8.765067	0.152979	30.257919	-5.274008	0.000000	0.055564	0.316400	-0.188107	0.103188	0.420812	-0.199864	0.091286	0.769294	-0.199864	0.063504	0.769294	-0.164594	0.051597	0.645202	-0.152837	0.031749	0.490103	-0.141081	0.396889	3.579176	-1.046197	0.000000	0.000000	26.383041	-1.664239	-17.614405	16.063025	-23.390498	44.380865	38.704512	75.938999	-9.735694	-6.789250	18.927810	-16.594262	153.351454	0.030351	2.197472	-12.870511	-22.002643
4.461538	1.004028	-9.918717	86.494817	0.198034	0.739185	0.830648	19.981444	1.106945	9.527596	10.450406	0.182394	28.663578	-6.410407	0.000000	17.609455	0.082870	0.428704	8.787780	0.153376	30.324635	-5.278919	0.000000	0.062083	0.320655	-0.140776	0.115295	0.426471	-0.149574	0.101997	0.779641	-0.149574	0.070955	0.779641	-0.123179	0.057651	0.653880	-0.114380	0.035474	0.496695	-0.105582	0.443454	3.627314	-0.782952	0.000000	0.000000	26.243793	-1.560811	-16.322303	16.830338	-23.408597	42.667969	39.970313	77.702752	-10.181646	-5.247025	19.953803	-15.994871	153.953805	0.002192	2.122027	-12.497169	-22.531151
4.480769	1.126394	-10.042935	86.276110	0.198571	0.738985	0.831717	19.920289	1.319433	10.210424	9.828715	0.171543	28.228673	-6.928569	0.000000	17.752406	-0.121813	0.209268	8.828767	0.154091	30.520493	-5.151826	0.000000	0.066993	0.323224	-0.097809	0.124414	0.429888	-0.103922	0.110064	0.785887	-0.103922	0.076567	0.785887	-0.085583	0.062210	0.659118	-0.079470	0.038280	0.500674	-0.073357	0.478528	3.656375	-0.543985	0.000000	0.000000	26.084983	-1.430012	-14.811221	17.652935	-23.152145	42.797375	40.450483	78.056135	-10.259813	-4.130587	20.918553	-15.294178	154.002412	0.181709	2.037059	-11.759065	-22.936028
4.500000	1.209717	-10.105444	86.071527	0.199108	0.738942	0.832443	19.779894	1.496036	10.999091	9.231027	0.161112	27.802392	-7.545757	0.000000	17.826969	-0.287268	-0.188579	8.877518	0.154942	30.816798	-4.823664	0.000000	0.068927	0.318766	-0.064110	0.128004	0.423958	-0.068117	0.113240	0.775047	-0.068117	0.078776	0.775047	-0.056097	0.064005	0.650027	-0.052090	0.039385	0.493768	-0.048083	0.492337	3.605940	-0.356563	0.000000	0.000000	25.875352	-1.264506	-13.179285	18.640029	-22.582965	45.076657	40.123792	76.772364	-9.962060	-3.598729	21.794738	-14.511368	153.869942	0.457511	1.954597	-10.652637	-23.192866
4.519231	1.238513	-10.099714	85.885594	0.199702	0.739073	0.832822	19.554435	1.620481	11.875706	8.661470	0.151171	27.388060	-8.253378	0.000000	17.824414	-0.397574	-0.732266	8.925774	0.155784	31.172336	-4.333120	0.000000	0.067660	0.303783	-0.046226	0.125652	0.404031	-0.049116	0.111159	0.738617	-0.049116	0.077329	0.738617	-0.040448	0.062829	0.619473	-0.037559	0.038661	0.470559	-0.034670	0.483289	3.436450	-0.257097	0.000000	0.000000	25.561236	-1.026716	-11.481607	19.913737	-21.703750	49.552545	39.134903	73.645549	-9.315319	-3.706983	22.533112	-13.667740	153.834573	0.734329	1.868872	-9.215085	-23.282051
4.538462	1.300677	-10.065406	85.729701	0.200023	0.739135	0.832750	19.276481	1.748581	12.721888	8.114844	0.141631	27.028016	-8.917696	0.000000	17.785025	-0.510686	-1.221890	8.981422	0.156755	31.591165	-3.907403	0.000000	0.067285	0.294745	-0.008891	0.124956	0.392010	-0.009447	0.110543	0.716642	-0.009447	0.076901	0.716642	-0.007780	0.062481	0.601043	-0.007224	0.038447	0.456559	-0.006668	0.480613	3.334210	-0.049451	0.000000	0.000000	25.204441	-0.927093	-9.882441	20.433306	-21.172054	49.359571	39.377607	74.580454	-9.238410	-3.048004	23.214574	-12.640175	154.127595	1.001517	1.794110	-7.546200	-23.191091
4.557692	1.346555	-9.971755	85.601051	0.200306	0.739256	0.832281	18.914779	1.842254	13.572913	7.579649	0.132290	26.718007	-9.571816	0.000000	17.673185	-0.597139	-1.771995	9.035797	0.157704	32.054758	-3.403104	0.000000	0.064603	0.282091	0.029186	0.119974	0.375181	0.031010	0.106136	0.685876	0.031010	0.073835	0.685876	0.025538	0.059990	0.575240	0.023714	0.036914	0.436959	0.021890	0.461451	3.191072	0.162325	0.000000	0.000000	24.777284	-0.812023	-8.351054	20.904628	-20.603927	49.312422	39.573570	75.476256	-9.098984	-2.565235	23.777609	-11.504850	154.693666	1.232835	1.710323	-5.644250	-22.994539
4.576923	1.385509	-9.832746	85.509024	0.200529	0.739395	0.831419	18.478218	1.907868	14.443547	7.040078	0.122873	26.459287	-10.251963	0.000000	17.502996	-0.663257	-2.335566	9.089383	0.158640	32.559704	-2.858612	0.000000	0.061298	0.267878	0.065634	0.113836	0.356277	0.069736	0.100706	0.651317	0.069736	0.070057	0.651317	0.057430	0.056921	0.546256	0.053328	0.035026	0.414942	0.049226	0.437844	3.030284	0.365038	0.000000	0.000000	24.330791	-0.688583	-6.889216	21.314756	-20.002050	49.284479	39.756489	76.492197	-8.801764	-2.195321	24.206575	-10.261357	155.354838	1.408860	1.679781	-3.436963	-22.823347
4.596154	1.514347	-9.614554	85.468640	0.200287	0.739730	0.830245	17.939570	2.019681	15.283286	6.508944	0.113603	26.206964	-10.937962	0.000000	17.237137	-0.769289	-2.734717	9.127377	0.159303	33.069172	-2.470370	0.000000	0.053575	0.267045	0.124675	0.099494	0.355170	0.132467	0.088018	0.649293	0.132467	0.061231	0.649293	0.109091	0.049750	0.544558	0.101299	0.030613	0.413653	0.093506	0.382681	3.020867	0.693406	0.000000	0.000000	23.835987	-0.676552	-5.686563	21.663891	-19.554463	49.323626	39.986768	77.754986	-8.462311	-1.936362	24.936206	-7.976326	161.242875	-0.584482	-2.032341	0.304973	-23.806353
4.615385	1.599461	-9.379417	85.486015	0.200179	0.739949	0.828782	17.367881	2.070965	16.127719	5.979770	0.104367	26.041137	-11.643604	0.000000	16.952740	-0.839703	-3.272275	9.186803	0.160340	33.651202	-1.851958	0.000000	0.046225	0.258902	0.163549	0.085845	0.344340	0.173771	0.075944	0.629495	0.173771	0.052831	0.629495	0.143106	0.042925	0.527953	0.132884	0.026413	0.401040	0.122662	0.330184	2.928754	0.909612	0.000000	0.000000	23.470327	-0.634444	-4.540591	22.085912	-19.002462	49.743820	40.157992	79.367833	-8.156019	-1.798528	25.305349	-6.100187	164.069675	-1.463122	-3.311343	3.631428	-24.199357
4.634615	1.646837	-9.133824	85.588969	0.200145	0.740062	0.827066	16.774050	2.057105	16.913298	5.465265	0.095387	25.963870	-12.328322	0.000000	16.649422	-0.867131	-3.830076	9.252811	0.161492	34.247075	-1.101740	0.000000	0.039947	0.244208	0.186833	0.074186	0.324796	0.198511	0.065630	0.593766	0.198511	0.045656	0.593766	0.163479	0.037095	0.497988	0.151802	0.022826	0.378277	0.140125	0.285341	2.762524	1.039112	0.000000	0.000000	23.250703	-0.611988	-3.552300	22.512826	-18.342279	50.388509	40.257928	81.305042	-7.741859	-1.821600	25.366323	-4.592983	164.135719	-1.332693	-2.581632	6.481698	-24.122379
4.653846	1.675204	-8.882945	85.764034	0.200176	0.740062	0.825124	16.155394	1.999814	17.603281	4.947101	0.086343	25.962086	-12.954105	0.000000	16.335792	-0.874444	-4.426724	9.342561	0.163058	34.858335	-0.237046	0.000000	0.035024	0.225743	0.205391	0.065044	0.300238	0.218227	0.057541	0.548871	0.218227	0.040029	0.548871	0.179717	0.032524	0.460335	0.166880	0.020013	0.349675	0.154043	0.250175	2.553647	1.142320	0.000000	0.000000	23.194385	-0.663837	-2.800351	22.913785	-17.634340	51.269770	40.366910	83.555544	-7.282538	-1.869613	25.162272	-3.433752	161.902107	-0.267164	-0.184723	8.707159	-23.678084
4.673077	1.675700	-8.632640	86.047891	0.200225	0.739967	0.823034	15.522678	1.881470	18.133495	4.435262	0.077410	26.028365	-13.496057	0.000000	16.023217	-0.845889	-5.014571	9.457828	0.165070	35.442214	0.733667	0.000000	0.032278	0.201522	0.221303	0.059944	0.268025	0.235135	0.053030	0.489981	0.235135	0.036891	0.489981	0.193640	0.029974	0.410944	0.179809	0.018444	0.312158	0.165978	0.230561	2.279661	1.230823	0.000000	0.000000	23.291398	-0.801787	-2.388245	23.240163	-16.876861	52.328527	40.491727	85.631830	-6.707258	-1.950314	24.747574	-2.614734	157.732669	1.636177	3.338457	10.220905	-23.036876
